<mxfile host="app.diagrams.net" modified="2024-02-07T14:57:40.217Z" agent="Mozilla/5.0 (Windows NT 10.0; Win64; x64) AppleWebKit/537.36 (KHTML, like Gecko) Chrome/121.0.0.0 Safari/537.36" version="23.1.1" etag="Iy2mmBItI3p-EoJmh3k0" type="github">
  <diagram name="Pagina-1" id="NXF7UxoxPpMDkA-CIiDx">
    <mxGraphModel>
      <root>
        <mxCell id="0" />
        <mxCell id="1" parent="0" />
      </root>
    </mxGraphModel>
  </diagram>
</mxfile>
